<svg width="138" height="32" viewBox="0 0 138 32" fill="none" xmlns="http://www.w3.org/2000/svg">
<g opacity="0.6">
<path d="M33.6482 7.63501H36.8135V22.952H33.6482V7.63501Z" fill="#1D2130"/>
<path d="M38.5861 17.705C38.5861 16.603 38.9118 15.5258 39.5219 14.61C40.132 13.6941 40.999 12.9809 42.013 12.5606C43.0271 12.1404 44.1425 12.032 45.2178 12.2494C46.2932 12.4667 47.2802 12.9999 48.0536 13.7813C48.827 14.5628 49.3521 15.5573 49.5622 16.6389C49.7724 17.7205 49.6581 18.8405 49.234 19.8568C48.8099 20.8731 48.095 21.74 47.1799 22.3476C46.2648 22.9553 45.1907 23.2763 44.0938 23.27C43.3663 23.2757 42.6449 23.1354 41.9721 22.8574C41.2992 22.5793 40.6884 22.1691 40.1754 21.6508C39.6624 21.1325 39.2576 20.5165 38.9847 19.8389C38.7118 19.1613 38.5763 18.4359 38.5861 17.705ZM46.5206 17.705C46.5081 17.2299 46.3565 16.769 46.0847 16.3801C45.8129 15.9911 45.433 15.6912 44.9925 15.518C44.552 15.3448 44.0704 15.3059 43.608 15.4062C43.1456 15.5066 42.7229 15.7416 42.3927 16.082C42.0626 16.4224 41.8397 16.853 41.7519 17.32C41.6641 17.787 41.7153 18.2696 41.8991 18.7076C42.0829 19.1455 42.3911 19.5192 42.7852 19.7821C43.1793 20.0449 43.6419 20.1852 44.1149 20.1854C44.437 20.1917 44.7569 20.1312 45.0547 20.0077C45.3524 19.8841 45.6216 19.7002 45.8454 19.4674C46.0692 19.2346 46.2428 18.958 46.3553 18.6547C46.4679 18.3515 46.517 18.0282 46.4995 17.705H46.5206Z" fill="#1D2130"/>
<path d="M62.1257 12.458V22.4326C62.1257 25.9518 59.3825 27.4464 56.6075 27.4464C55.6287 27.5271 54.6469 27.3317 53.7727 26.8823C52.8984 26.4328 52.1664 25.7471 51.659 24.9024L54.3285 23.3548C54.5448 23.793 54.8889 24.1545 55.3149 24.3912C55.7409 24.6279 56.2286 24.7286 56.713 24.6798C57.0216 24.718 57.3348 24.6872 57.6301 24.5896C57.9255 24.4921 58.1958 24.3302 58.4216 24.1154C58.6474 23.9007 58.8232 23.6385 58.9364 23.3476C59.0496 23.0567 59.0975 22.7442 59.0765 22.4326V21.468C58.7081 21.9167 58.2407 22.2729 57.7114 22.5084C57.1821 22.7439 56.6054 22.8523 56.0272 22.8248C54.628 22.8248 53.2862 22.2664 52.2968 21.2725C51.3074 20.2785 50.7516 18.9305 50.7516 17.5248C50.7516 16.1192 51.3074 14.7711 52.2968 13.7771C53.2862 12.7832 54.628 12.2248 56.0272 12.2248C56.6054 12.1973 57.1821 12.3057 57.7114 12.5412C58.2407 12.7767 58.7081 13.1329 59.0765 13.5816V12.5216L62.1257 12.458ZM59.0765 17.493C59.0975 16.9859 58.9671 16.484 58.7019 16.0519C58.4368 15.6199 58.0491 15.2774 57.5886 15.0685C57.1281 14.8596 56.616 14.7938 56.118 14.8797C55.6201 14.9655 55.1591 15.1991 54.7943 15.5503C54.4295 15.9015 54.1777 16.3542 54.0711 16.8504C53.9645 17.3466 54.0081 17.8634 54.1963 18.3345C54.3845 18.8055 54.7086 19.2093 55.127 19.4938C55.5454 19.7783 56.039 19.9306 56.5442 19.931C56.8739 19.9549 57.2049 19.909 57.5158 19.7963C57.8267 19.6837 58.1107 19.5068 58.3493 19.277C58.588 19.0473 58.776 18.7698 58.9012 18.4625C59.0265 18.1552 59.0862 17.8249 59.0765 17.493Z" fill="#1D2130"/>
<path d="M63.9088 17.705C63.9089 16.6039 64.234 15.5275 64.8431 14.6121C65.4523 13.6968 66.318 12.9835 67.3308 12.5626C68.3436 12.1417 69.4579 12.0321 70.5328 12.2477C71.6076 12.4633 72.5946 12.9944 73.3688 13.7737C74.1431 14.5531 74.6698 15.5456 74.8824 16.6258C75.0949 17.706 74.9837 18.8253 74.5628 19.842C74.142 20.8587 73.4303 21.7271 72.518 22.3373C71.6057 22.9475 70.5337 23.2721 69.4376 23.27C68.7087 23.2771 67.9858 23.1379 67.3111 22.8606C66.6364 22.5834 66.0236 22.1735 65.5087 21.6552C64.9937 21.1369 64.587 20.5205 64.3123 19.8422C64.0375 19.1639 63.9004 18.4373 63.9088 17.705ZM71.8433 17.705C71.8308 17.2295 71.679 16.7682 71.4067 16.379C71.1344 15.9898 70.7539 15.69 70.3128 15.5171C69.8716 15.3442 69.3895 15.3059 68.9268 15.4071C68.4642 15.5083 68.0415 15.7444 67.7118 16.0858C67.3821 16.4273 67.16 16.8589 67.0734 17.3265C66.9868 17.7942 67.0395 18.2772 67.2249 18.7149C67.4103 19.1526 67.7202 19.5257 68.1156 19.7872C68.5111 20.0488 68.9747 20.1873 69.4482 20.1854C69.7703 20.1917 70.0902 20.1312 70.388 20.0077C70.6857 19.8841 70.9549 19.7002 71.1787 19.4674C71.4025 19.2346 71.5761 18.958 71.6886 18.6547C71.8012 18.3515 71.8502 18.0282 71.8328 17.705H71.8433Z" fill="#1D2130"/>
<path d="M76.4331 9.64896C76.4331 9.27578 76.5433 8.91099 76.7496 8.6007C76.956 8.29042 77.2493 8.04859 77.5925 7.90578C77.9357 7.76297 78.3133 7.72561 78.6776 7.79841C79.0419 7.87121 79.3766 8.05091 79.6392 8.31479C79.9019 8.57866 80.0807 8.91485 80.1532 9.28086C80.2257 9.64686 80.1885 10.0262 80.0463 10.371C79.9042 10.7158 79.6635 11.0104 79.3546 11.2178C79.0458 11.4251 78.6827 11.5358 78.3112 11.5358C77.8148 11.5302 77.3403 11.3297 76.9893 10.977C76.6382 10.6244 76.4386 10.1477 76.4331 9.64896ZM76.7391 12.458H79.9044V22.952H76.7391V12.458Z" fill="#1D2130"/>
<path d="M93.452 17.705C93.4875 18.4029 93.3853 19.101 93.1512 19.7591C92.917 20.4171 92.5557 21.0222 92.0879 21.5394C91.6202 22.0566 91.0552 22.4758 90.4256 22.7728C89.7959 23.0698 89.1141 23.2388 88.4191 23.27C87.8295 23.3094 87.2385 23.2146 86.6904 22.9925C86.1424 22.7704 85.6513 22.4268 85.2538 21.9874V27.1708H82.0885V12.458H85.2538V13.4438C85.6518 13.0057 86.1432 12.6637 86.6914 12.4435C87.2396 12.2232 87.8302 12.1303 88.4191 12.1718C89.1113 12.2031 89.7904 12.3711 90.4179 12.6661C91.0454 12.9611 91.6089 13.3774 92.0763 13.8912C92.5436 14.4051 92.9057 15.0063 93.1417 15.6607C93.3778 16.3151 93.4832 17.0097 93.452 17.705ZM90.2867 17.705C90.2742 17.2127 90.1174 16.735 89.8359 16.3319C89.5543 15.9287 89.1606 15.618 88.704 15.4387C88.2475 15.2594 87.7484 15.2195 87.2693 15.324C86.7903 15.4284 86.3526 15.6726 86.011 16.0259C85.6695 16.3792 85.4394 16.8259 85.3496 17.3101C85.2597 17.7942 85.3141 18.2942 85.5059 18.7474C85.6977 19.2006 86.0183 19.5869 86.4277 19.8578C86.8371 20.1287 87.317 20.2722 87.8072 20.2702C88.143 20.2845 88.4779 20.2274 88.7902 20.1025C89.1024 19.9777 89.3849 19.7879 89.619 19.5457C89.8531 19.3035 90.0336 19.0143 90.1487 18.6971C90.2638 18.3799 90.3108 18.0418 90.2867 17.705Z" fill="#1D2130"/>
<path d="M103.085 19.8038C103.085 22.2206 100.975 23.2488 98.7382 23.2488C97.8258 23.3313 96.9099 23.137 96.1086 22.6911C95.3073 22.2451 94.6576 21.568 94.2434 20.7472L96.9656 19.1996C97.0734 19.5778 97.3073 19.9074 97.628 20.1331C97.9487 20.3589 98.3369 20.4671 98.7276 20.4398C99.4767 20.4398 99.8566 20.2066 99.8566 19.7826C99.8566 18.6272 94.7182 19.242 94.7182 15.6062C94.7182 13.3166 96.6385 12.1718 98.812 12.1718C99.6382 12.1346 100.459 12.3229 101.187 12.7167C101.915 13.1105 102.524 13.6951 102.948 14.4084L100.226 15.85C100.106 15.5765 99.9091 15.3439 99.6601 15.1803C99.411 15.0166 99.1201 14.9289 98.8226 14.9278C98.2739 14.9278 97.9468 15.1398 97.9468 15.5108C97.9468 16.7192 103.085 15.9242 103.085 19.8038Z" fill="#1D2130"/>
<path d="M114.554 12.458V22.952H111.389V21.9662C111.029 22.4026 110.573 22.7479 110.056 22.9744C109.539 23.2009 108.976 23.3022 108.413 23.27C106.303 23.27 104.499 21.7542 104.499 18.924V12.458H107.664V18.447C107.639 18.6974 107.669 18.9503 107.751 19.1881C107.833 19.4259 107.965 19.643 108.139 19.8244C108.312 20.0058 108.523 20.1472 108.756 20.2388C108.989 20.3304 109.24 20.3701 109.49 20.355C110.629 20.355 111.431 19.6766 111.431 18.235V12.458H114.554Z" fill="#1D2130"/>
<path d="M132.491 16.5072V22.952H129.326V16.7828C129.326 15.7228 128.83 15.0656 127.828 15.0656C126.825 15.0656 126.192 15.797 126.192 17.0372V22.952H123.027V16.7828C123.027 15.7228 122.531 15.0656 121.529 15.0656C120.526 15.0656 119.893 15.797 119.893 17.0372V22.952H116.728V12.458H119.893V13.4226C120.221 12.9964 120.649 12.6589 121.139 12.4406C121.629 12.2222 122.165 12.1298 122.7 12.1718C123.235 12.1437 123.768 12.256 124.248 12.4976C124.727 12.7392 125.135 13.1018 125.432 13.5498C125.78 13.0817 126.24 12.7098 126.77 12.4689C127.299 12.2279 127.881 12.1257 128.461 12.1718C130.93 12.1718 132.491 13.889 132.491 16.5072Z" fill="#1D2130"/>
<path d="M14.7933 4.87902V0.374023H0.654785V31.326H14.7933V26.821C11.897 26.821 9.11938 25.6651 7.0714 23.6077C5.02343 21.5502 3.87288 18.7597 3.87288 15.85C3.87288 12.9403 5.02343 10.1498 7.0714 8.09235C9.11938 6.03489 11.897 4.87902 14.7933 4.87902Z" fill="#1D2130"/>
<path d="M14.7933 4.87902V26.821C17.6896 26.821 20.4672 25.6652 22.5151 23.6077C24.5631 21.5502 25.7137 18.7597 25.7137 15.85C25.7137 12.9403 24.5631 10.1498 22.5151 8.09236C20.4672 6.03489 17.6896 4.87902 14.7933 4.87902Z" fill="#1D2130"/>
<path d="M135.15 12.3944C136.432 12.3944 137.471 11.3503 137.471 10.0624C137.471 8.77447 136.432 7.73039 135.15 7.73039C133.868 7.73039 132.829 8.77447 132.829 10.0624C132.829 11.3503 133.868 12.3944 135.15 12.3944Z" fill="#1D2130"/>
</g>
</svg>
