<svg width="137" height="32" viewBox="0 0 137 32" fill="none" xmlns="http://www.w3.org/2000/svg">
<g opacity="0.6">
<path d="M33.177 7.63501H36.3423V22.952H33.177V7.63501Z" fill="#1D2130"/>
<path d="M38.1149 17.705C38.115 16.603 38.4406 15.5258 39.0507 14.61C39.6608 13.6941 40.5278 12.9809 41.5418 12.5606C42.5559 12.1404 43.6713 12.032 44.7466 12.2494C45.822 12.4667 46.809 12.9999 47.5824 13.7813C48.3558 14.5628 48.8809 15.5573 49.091 16.6389C49.3012 17.7205 49.1869 18.8405 48.7628 19.8568C48.3387 20.8731 47.6238 21.74 46.7087 22.3476C45.7936 22.9553 44.7195 23.2763 43.6226 23.27C42.8951 23.2757 42.1737 23.1354 41.5009 22.8574C40.828 22.5793 40.2172 22.1691 39.7042 21.6508C39.1912 21.1325 38.7864 20.5165 38.5135 19.8389C38.2406 19.1613 38.1051 18.4359 38.1149 17.705ZM46.0494 17.705C46.0369 17.2299 45.8853 16.769 45.6135 16.3801C45.3418 15.9911 44.9618 15.6912 44.5213 15.518C44.0808 15.3448 43.5992 15.3059 43.1368 15.4062C42.6744 15.5066 42.2517 15.7416 41.9216 16.082C41.5914 16.4224 41.3685 16.853 41.2807 17.32C41.1929 17.787 41.2441 18.2696 41.4279 18.7076C41.6117 19.1455 41.9199 19.5192 42.314 19.7821C42.7082 20.0449 43.1707 20.1852 43.6437 20.1854C43.9658 20.1917 44.2857 20.1312 44.5835 20.0077C44.8812 19.8841 45.1504 19.7002 45.3742 19.4674C45.598 19.2346 45.7716 18.958 45.8842 18.6547C45.9967 18.3515 46.0458 18.0282 46.0283 17.705H46.0494Z" fill="#1D2130"/>
<path d="M61.6546 12.458V22.4326C61.6546 25.9518 58.9113 27.4464 56.1363 27.4464C55.1575 27.5271 54.1757 27.3317 53.3015 26.8823C52.4272 26.4328 51.6952 25.7471 51.1878 24.9024L53.8573 23.3548C54.0736 23.793 54.4177 24.1545 54.8437 24.3912C55.2697 24.6279 55.7574 24.7286 56.2418 24.6798C56.5504 24.718 56.8636 24.6872 57.159 24.5896C57.4543 24.4921 57.7246 24.3302 57.9504 24.1154C58.1762 23.9007 58.352 23.6385 58.4652 23.3476C58.5784 23.0567 58.6263 22.7442 58.6053 22.4326V21.468C58.2369 21.9167 57.7696 22.2729 57.2402 22.5084C56.7109 22.7439 56.1343 22.8523 55.556 22.8248C54.1568 22.8248 52.815 22.2664 51.8256 21.2725C50.8362 20.2785 50.2804 18.9305 50.2804 17.5248C50.2804 16.1192 50.8362 14.7711 51.8256 13.7771C52.815 12.7832 54.1568 12.2248 55.556 12.2248C56.1343 12.1973 56.7109 12.3057 57.2402 12.5412C57.7696 12.7767 58.2369 13.1329 58.6053 13.5816V12.5216L61.6546 12.458ZM58.6053 17.493C58.6263 16.9859 58.4959 16.484 58.2307 16.0519C57.9656 15.6199 57.5779 15.2774 57.1174 15.0685C56.6569 14.8596 56.1448 14.7938 55.6468 14.8797C55.1489 14.9655 54.6879 15.1991 54.3231 15.5503C53.9583 15.9015 53.7065 16.3542 53.5999 16.8504C53.4933 17.3466 53.5369 17.8634 53.7251 18.3345C53.9133 18.8055 54.2374 19.2093 54.6558 19.4938C55.0742 19.7783 55.5678 19.9306 56.073 19.931C56.4027 19.9549 56.7337 19.909 57.0446 19.7963C57.3555 19.6837 57.6395 19.5068 57.8781 19.277C58.1168 19.0473 58.3048 18.7698 58.43 18.4625C58.5553 18.1552 58.615 17.8249 58.6053 17.493Z" fill="#1D2130"/>
<path d="M63.4377 17.705C63.4377 16.6039 63.7628 15.5275 64.3719 14.6121C64.9811 13.6968 65.8468 12.9835 66.8596 12.5626C67.8724 12.1417 68.9868 12.0321 70.0616 12.2477C71.1364 12.4633 72.1234 12.9944 72.8976 13.7737C73.6719 14.5531 74.1986 15.5456 74.4112 16.6258C74.6237 17.706 74.5125 18.8253 74.0917 19.842C73.6708 20.8587 72.9591 21.7271 72.0468 22.3373C71.1345 22.9475 70.0625 23.2721 68.9664 23.27C68.2375 23.2771 67.5146 23.1379 66.8399 22.8606C66.1652 22.5834 65.5524 22.1735 65.0375 21.6552C64.5225 21.1369 64.1158 20.5205 63.8411 19.8422C63.5664 19.1639 63.4292 18.4373 63.4377 17.705ZM71.3721 17.705C71.3596 17.2295 71.2078 16.7682 70.9355 16.379C70.6632 15.9898 70.2827 15.69 69.8416 15.5171C69.4004 15.3442 68.9183 15.3059 68.4556 15.4071C67.993 15.5083 67.5703 15.7444 67.2406 16.0858C66.9109 16.4273 66.6888 16.8589 66.6022 17.3265C66.5156 17.7942 66.5683 18.2772 66.7537 18.7149C66.9391 19.1526 67.249 19.5257 67.6445 19.7872C68.04 20.0488 68.5035 20.1873 68.977 20.1854C69.2991 20.1917 69.619 20.1312 69.9168 20.0077C70.2145 19.8841 70.4837 19.7002 70.7075 19.4674C70.9313 19.2346 71.1049 18.958 71.2174 18.6547C71.33 18.3515 71.379 18.0282 71.3616 17.705H71.3721Z" fill="#1D2130"/>
<path d="M75.9619 9.64896C75.9619 9.27578 76.0721 8.91099 76.2784 8.6007C76.4848 8.29042 76.7781 8.04859 77.1213 7.90578C77.4645 7.76297 77.8421 7.72561 78.2064 7.79841C78.5707 7.87121 78.9054 8.05091 79.168 8.31479C79.4307 8.57866 79.6096 8.91485 79.682 9.28086C79.7545 9.64686 79.7173 10.0262 79.5751 10.371C79.433 10.7158 79.1923 11.0104 78.8834 11.2178C78.5746 11.4251 78.2115 11.5358 77.84 11.5358C77.3436 11.5302 76.8691 11.3297 76.5181 10.977C76.167 10.6244 75.9674 10.1477 75.9619 9.64896ZM76.2679 12.458H79.4332V22.952H76.2679V12.458Z" fill="#1D2130"/>
<path d="M92.9809 17.705C93.0163 18.4029 92.9141 19.101 92.68 19.7591C92.4459 20.4171 92.0845 21.0222 91.6168 21.5394C91.149 22.0566 90.584 22.4758 89.9544 22.7728C89.3247 23.0698 88.6429 23.2388 87.948 23.27C87.3583 23.3094 86.7673 23.2146 86.2192 22.9925C85.6712 22.7704 85.1801 22.4268 84.7826 21.9874V27.1708H81.6173V12.458H84.7826V13.4438C85.1806 13.0057 85.672 12.6637 86.2202 12.4435C86.7684 12.2232 87.359 12.1303 87.948 12.1718C88.6401 12.2031 89.3193 12.3711 89.9468 12.6661C90.5743 12.9611 91.1378 13.3774 91.6051 13.8912C92.0725 14.4051 92.4345 15.0063 92.6705 15.6607C92.9066 16.3151 93.012 17.0097 92.9809 17.705ZM89.8155 17.705C89.803 17.2127 89.6462 16.735 89.3647 16.3319C89.0831 15.9287 88.6894 15.618 88.2328 15.4387C87.7763 15.2594 87.2772 15.2195 86.7981 15.324C86.3191 15.4284 85.8814 15.6726 85.5399 16.0259C85.1983 16.3792 84.9682 16.8259 84.8784 17.3101C84.7885 17.7942 84.8429 18.2942 85.0347 18.7474C85.2265 19.2006 85.5472 19.5869 85.9565 19.8578C86.3659 20.1287 86.8458 20.2722 87.336 20.2702C87.6718 20.2845 88.0067 20.2274 88.319 20.1025C88.6312 19.9777 88.9137 19.7879 89.1478 19.5457C89.3819 19.3035 89.5624 19.0143 89.6775 18.6971C89.7926 18.3799 89.8396 18.0418 89.8155 17.705Z" fill="#1D2130"/>
<path d="M102.614 19.8038C102.614 22.2206 100.504 23.2488 98.267 23.2488C97.3546 23.3313 96.4387 23.137 95.6374 22.6911C94.8361 22.2451 94.1864 21.568 93.7722 20.7472L96.4944 19.1996C96.6022 19.5778 96.8361 19.9074 97.1568 20.1331C97.4775 20.3589 97.8657 20.4671 98.2564 20.4398C99.0055 20.4398 99.3854 20.2066 99.3854 19.7826C99.3854 18.6272 94.247 19.242 94.247 15.6062C94.247 13.3166 96.1673 12.1718 98.3408 12.1718C99.167 12.1346 99.9878 12.3229 100.716 12.7167C101.444 13.1105 102.053 13.6951 102.477 14.4084L99.7547 15.85C99.6344 15.5765 99.4379 15.3439 99.1889 15.1803C98.9398 15.0166 98.6489 14.9289 98.3514 14.9278C97.8027 14.9278 97.4756 15.1398 97.4756 15.5108C97.4756 16.7192 102.614 15.9242 102.614 19.8038Z" fill="#1D2130"/>
<path d="M114.083 12.458V22.952H110.918V21.9662C110.558 22.4026 110.102 22.7479 109.585 22.9744C109.068 23.2009 108.505 23.3022 107.942 23.27C105.832 23.27 104.028 21.7542 104.028 18.924V12.458H107.193V18.447C107.168 18.6974 107.198 18.9503 107.28 19.1881C107.362 19.4259 107.494 19.643 107.667 19.8244C107.841 20.0058 108.052 20.1472 108.285 20.2388C108.518 20.3304 108.768 20.3701 109.019 20.355C110.158 20.355 110.96 19.6766 110.96 18.235V12.458H114.083Z" fill="#1D2130"/>
<path d="M132.02 16.5072V22.952H128.855V16.7828C128.855 15.7228 128.359 15.0656 127.356 15.0656C126.354 15.0656 125.721 15.797 125.721 17.0372V22.952H122.556V16.7828C122.556 15.7228 122.06 15.0656 121.057 15.0656C120.055 15.0656 119.422 15.797 119.422 17.0372V22.952H116.257V12.458H119.422V13.4226C119.75 12.9964 120.178 12.6589 120.668 12.4406C121.158 12.2222 121.694 12.1298 122.229 12.1718C122.764 12.1437 123.297 12.256 123.776 12.4976C124.255 12.7392 124.664 13.1018 124.961 13.5498C125.309 13.0817 125.769 12.7098 126.299 12.4689C126.828 12.2279 127.41 12.1257 127.989 12.1718C130.458 12.1718 132.02 13.889 132.02 16.5072Z" fill="#1D2130"/>
<path d="M14.3221 4.87902V0.374023H0.183594V31.326H14.3221V26.821C11.4258 26.821 8.64819 25.6651 6.60021 23.6077C4.55223 21.5502 3.40169 18.7597 3.40169 15.85C3.40169 12.9403 4.55223 10.1498 6.60021 8.09235C8.64819 6.03489 11.4258 4.87902 14.3221 4.87902Z" fill="#1D2130"/>
<path d="M14.3221 4.87902V26.821C17.2184 26.821 19.996 25.6652 22.044 23.6077C24.0919 21.5502 25.2425 18.7597 25.2425 15.85C25.2425 12.9403 24.0919 10.1498 22.044 8.09236C19.996 6.03489 17.2184 4.87902 14.3221 4.87902Z" fill="#1D2130"/>
<path d="M134.679 12.3944C135.961 12.3944 137 11.3503 137 10.0624C137 8.77447 135.961 7.73039 134.679 7.73039C133.397 7.73039 132.358 8.77447 132.358 10.0624C132.358 11.3503 133.397 12.3944 134.679 12.3944Z" fill="#1D2130"/>
</g>
</svg>
